<?xml version="1.0" standalone="no"?>
<!DOCTYPE svg PUBLIC "-//W3C//DTD SVG 20010904//EN"
 "http://www.w3.org/TR/2001/REC-SVG-20010904/DTD/svg10.dtd">
<svg version="1.0" xmlns="http://www.w3.org/2000/svg"
 width="168.000000pt" height="38.000000pt" viewBox="0 0 168.000000 38.000000"
 preserveAspectRatio="xMidYMid meet">
<g transform="translate(0.000000,38.000000) scale(0.100000,-0.100000)"
fill="#000000" stroke="none">
<path d="M1070 195 c0 -108 1 -115 20 -115 19 0 20 7 20 115 0 108 -1 115 -20
115 -19 0 -20 -7 -20 -115z"/>
<path d="M100 190 l0 -110 60 0 c53 0 60 2 60 20 0 16 -7 20 -35 20 -31 0 -35
3 -35 25 0 22 4 25 35 25 28 0 35 4 35 20 0 16 -7 20 -35 20 -31 0 -35 3 -35
25 0 22 4 25 35 25 28 0 35 4 35 20 0 18 -7 20 -60 20 l-60 0 0 -110z"/>
<path d="M920 190 l0 -110 25 0 c23 0 25 4 25 45 0 45 0 45 35 45 28 0 35 4
35 20 0 16 -7 20 -35 20 -31 0 -35 3 -35 25 0 22 4 25 35 25 28 0 35 4 35 20
0 18 -7 20 -60 20 l-60 0 0 -110z"/>
<path d="M770 245 c0 -14 -4 -25 -10 -25 -5 0 -10 -9 -10 -20 0 -11 5 -20 10
-20 6 0 10 -15 10 -34 0 -52 9 -66 41 -66 22 0 29 5 29 19 0 10 -7 21 -15 25
-8 3 -15 17 -15 31 0 16 6 25 15 25 8 0 15 9 15 20 0 11 -7 20 -15 20 -9 0
-15 9 -15 25 0 18 -5 25 -20 25 -15 0 -20 -7 -20 -25z"/>
<path d="M240 213 c0 -5 14 -36 32 -70 44 -83 58 -82 103 7 l35 70 -25 0 c-18
0 -29 -9 -44 -37 l-19 -38 -18 38 c-13 27 -24 37 -41 37 -13 0 -23 -3 -23 -7z"/>
<path d="M435 195 c-30 -30 -31 -54 -4 -89 16 -20 29 -26 59 -26 43 0 74 25
50 40 -8 5 -21 5 -31 0 -11 -6 -23 -4 -35 5 -17 13 -14 14 34 15 44 0 52 3 52
18 0 27 -42 62 -74 62 -15 0 -37 -10 -51 -25z m70 -15 c4 -6 -5 -10 -20 -10
-15 0 -24 4 -20 10 3 6 12 10 20 10 8 0 17 -4 20 -10z"/>
<path d="M580 149 c0 -67 1 -69 24 -69 23 0 25 5 28 48 3 39 6 47 23 47 17 0
20 -8 23 -47 3 -43 5 -48 28 -48 22 0 24 3 24 53 0 70 -16 85 -92 85 l-58 0 0
-69z"/>
<path d="M1180 208 c-13 -8 -29 -26 -34 -41 -23 -65 69 -113 127 -67 68 53
-14 148 -93 108z m68 -59 c3 -28 -16 -43 -43 -33 -15 6 -21 45 -8 58 16 16 48
1 51 -25z"/>
<path d="M1542 212 c-16 -2 -29 -16 -39 -40 l-15 -37 -15 38 c-19 46 -46 49
-63 7 -7 -16 -16 -30 -20 -30 -4 0 -13 14 -20 30 -9 22 -19 30 -36 30 l-24 0
32 -65 c38 -75 59 -82 80 -27 l15 37 18 -38 c11 -21 25 -36 33 -35 12 3 88
127 80 132 -2 1 -14 0 -26 -2z"/>
</g>
</svg>
